<svg xmlns="http://www.w3.org/2000/svg" xmlns:xlink="http://www.w3.org/1999/xlink" xmlns:inkscape="http://www.inkscape.org/namespaces/inkscape" version="1.1" width="1920" height="1080" viewBox="0 0 1920 1080">
<defs>
<clipPath id="clip_0">
<path transform="matrix(1,0,0,1,1711,1015)" d="M0 0H184V60H0Z"/>
</clipPath>
<clipPath id="clip_1">
<path transform="matrix(1,0,0,1,50,419.94053)" d="M0 0H1820V240.11898H0Z"/>
</clipPath>
<clipPath id="clip_2">
<path transform="matrix(1.0943378,0,0,1.0943378,55.558774,422.1292)" d="M231.22916-2H364.2922V85.342189H231.22916Z"/>
</clipPath>
<clipPath id="clip_3">
<path transform="matrix(1.0943378,0,0,1.0943378,55.558774,422.1292)" d="M572.52139 8.342188H677.8635V100.41943H572.52139Z"/>
</clipPath>
<clipPath id="clip_4">
<path transform="matrix(1.0943378,0,0,1.0943378,55.558774,422.1292)" d="M886.0927 20.16183H1082.3356V100.41943H886.0927Z"/>
</clipPath>
<clipPath id="clip_5">
<path transform="matrix(1.0943378,0,0,1.0943378,55.558774,422.1292)" d="M1290.5647 20.16183H1417.7179V100.41943H1290.5647Z"/>
</clipPath>
<clipPath id="clip_6">
<path transform="matrix(1.0943378,0,0,1.0943378,55.558774,422.1292)" d="M1394.7179 25.419436H1647.947V57.419435H1394.7179Z"/>
</clipPath>
<clipPath id="clip_7">
<path transform="matrix(1.0943378,0,0,1.0943378,55.558774,422.1292)" d="M1394.7179 57.419435H1647.947V89.41943H1394.7179Z"/>
</clipPath>
<clipPath id="clip_8">
<path transform="matrix(1.0943378,0,0,1.0943378,55.558774,422.1292)" d="M1394.7179 89.41943H1647.947V121.41943H1394.7179Z"/>
</clipPath>
<clipPath id="clip_9">
<path transform="matrix(1.0943378,0,0,1.0943378,55.558774,422.1292)" d="M1394.7179 121.41943H1647.947V153.41944H1394.7179Z"/>
</clipPath>
<clipPath id="clip_10">
<path transform="matrix(1.0943378,0,0,1.0943378,55.558774,422.1292)" d="M1394.7179 153.41944H1647.947V185.41944H1394.7179Z"/>
</clipPath>
<clipPath id="clip_11">
<path transform="matrix(1.0943378,0,0,1.0943378,55.558774,422.1292)" d="M1394.7179 185.41944H1647.947V217.41944H1394.7179Z"/>
</clipPath>
<clipPath id="clip_12">
<path transform="matrix(1.0943378,0,0,1.0943378,55.558774,422.1292)" d="M0 0H253.22916V32H0Z"/>
</clipPath>
<clipPath id="clip_13">
<path transform="matrix(1.0943378,0,0,1.0943378,55.558774,422.1292)" d="M0 32H253.22916V64H0Z"/>
</clipPath>
<clipPath id="clip_14">
<path transform="matrix(1.0943378,0,0,1.0943378,55.558774,422.1292)" d="M0 64H253.22916V96H0Z"/>
</clipPath>
<clipPath id="clip_15">
<path transform="matrix(1.0943378,0,0,1.0943378,55.558774,422.1292)" d="M0 96H253.22916V128H0Z"/>
</clipPath>
<clipPath id="clip_16">
<path transform="matrix(1.0943378,0,0,1.0943378,55.558774,422.1292)" d="M0 128H253.22916V160H0Z"/>
</clipPath>
<clipPath id="clip_17">
<path transform="matrix(1.0943378,0,0,1.0943378,55.558774,422.1292)" d="M0 160H253.22916V192H0Z"/>
</clipPath>
<clipPath id="clip_18">
<path transform="matrix(1.0943378,0,0,1.0943378,55.558774,422.1292)" d="M341.2922 10.342188H594.52139V42.342187H341.2922Z"/>
</clipPath>
<clipPath id="clip_19">
<path transform="matrix(1.0943378,0,0,1.0943378,55.558774,422.1292)" d="M341.2922 42.34219H594.52139V74.34219H341.2922Z"/>
</clipPath>
<clipPath id="clip_20">
<path transform="matrix(1.0943378,0,0,1.0943378,55.558774,422.1292)" d="M341.2922 74.342189H594.52139V106.342189H341.2922Z"/>
</clipPath>
<clipPath id="clip_21">
<path transform="matrix(1.0943378,0,0,1.0943378,55.558774,422.1292)" d="M341.2922 106.342189H594.52139V138.3422H341.2922Z"/>
</clipPath>
<clipPath id="clip_22">
<path transform="matrix(1.0943378,0,0,1.0943378,55.558774,422.1292)" d="M341.2922 138.3422H594.52139V170.3422H341.2922Z"/>
</clipPath>
<clipPath id="clip_23">
<path transform="matrix(1.0943378,0,0,1.0943378,55.558774,422.1292)" d="M341.2922 170.3422H594.52139V202.3422H341.2922Z"/>
</clipPath>
<clipPath id="clip_24">
<path transform="matrix(1.0943378,0,0,1.0943378,55.558774,422.1292)" d="M654.8636 25.419436H908.0928V57.419435H654.8636Z"/>
</clipPath>
<clipPath id="clip_25">
<path transform="matrix(1.0943378,0,0,1.0943378,55.558774,422.1292)" d="M654.8636 57.419435H908.0928V89.41943H654.8636Z"/>
</clipPath>
<clipPath id="clip_26">
<path transform="matrix(1.0943378,0,0,1.0943378,55.558774,422.1292)" d="M654.8636 89.41943H908.0928V121.41943H654.8636Z"/>
</clipPath>
<clipPath id="clip_27">
<path transform="matrix(1.0943378,0,0,1.0943378,55.558774,422.1292)" d="M654.8636 121.41943H908.0928V153.41944H654.8636Z"/>
</clipPath>
<clipPath id="clip_28">
<path transform="matrix(1.0943378,0,0,1.0943378,55.558774,422.1292)" d="M654.8636 153.41944H908.0928V185.41944H654.8636Z"/>
</clipPath>
<clipPath id="clip_29">
<path transform="matrix(1.0943378,0,0,1.0943378,55.558774,422.1292)" d="M654.8636 185.41944H908.0928V217.41944H654.8636Z"/>
</clipPath>
<clipPath id="clip_30">
<path transform="matrix(1.0943378,0,0,1.0943378,55.558774,422.1292)" d="M1059.3356 22.16183H1312.5647V54.16183H1059.3356Z"/>
</clipPath>
<clipPath id="clip_31">
<path transform="matrix(1.0943378,0,0,1.0943378,55.558774,422.1292)" d="M1059.3356 54.16183H1312.5647V86.161838H1059.3356Z"/>
</clipPath>
<clipPath id="clip_32">
<path transform="matrix(1.0943378,0,0,1.0943378,55.558774,422.1292)" d="M1059.3356 86.161838H1312.5647V118.161838H1059.3356Z"/>
</clipPath>
<clipPath id="clip_33">
<path transform="matrix(1.0943378,0,0,1.0943378,55.558774,422.1292)" d="M1059.3356 118.161838H1312.5647V150.16184H1059.3356Z"/>
</clipPath>
<clipPath id="clip_34">
<path transform="matrix(1.0943378,0,0,1.0943378,55.558774,422.1292)" d="M1059.3356 150.16184H1312.5647V182.16184H1059.3356Z"/>
</clipPath>
<clipPath id="clip_35">
<path transform="matrix(1.0943378,0,0,1.0943378,55.558774,422.1292)" d="M1059.3356 182.16184H1312.5647V214.16184H1059.3356Z"/>
</clipPath>
</defs>
<path transform="matrix(1,0,0,-1,0,1080)" d="M0 1080H1920V0H0Z" fill="#45454d"/>
<g clip-path="url(#clip_0)">
<path transform="matrix(.2,0,0,.2,1711,1015)" d="M211.9 68.8H159.7V147.6H242.4V99.3C242.4 82.5 228.8 68.8 211.9 68.8Z" fill="#428cff"/>
<path transform="matrix(.2,0,0,.2,1711,1015)" d="M242.4 147.6H159.7V228.8H211.9C228.7 228.8 242.4 215.1 242.4 198.3V147.6Z" fill="#2670de"/>
<path transform="matrix(.2,0,0,.2,1711,1015)" d="M159.7 68.8H113.1C96.3 68.8 82.6 82.5 82.6 99.3V198.3C82.6 215.1 96.3 228.8 113.1 228.8H159.7V68.8Z" fill="#2161cf"/>
<path transform="matrix(.2,0,0,.2,1711,1015)" d="M135.9 165.1H113.9C110.5 165.1 107.8 162.4 107.8 159V137C107.8 133.6 110.5 130.9 113.9 130.9H135.9C139.3 130.9 142 133.6 142 137V159C142 162.4 139.2 165.1 135.9 165.1ZM185 92.8H207C210.4 92.8 213.1 95.5 213.1 98.9V120.9C213.1 124.299999 210.4 127 207 127H185C181.6 127 178.9 124.299999 178.9 120.9V98.9C178.9 95.5 181.7 92.8 185 92.8ZM185 171H207C210.4 171 213.1 173.7 213.1 177.1V199.1C213.1 202.5 210.4 205.2 207 205.2H185C181.6 205.2 178.9 202.5 178.9 199.1V177.1C178.9 173.7 181.7 171 185 171Z" fill="#ffffff"/>
<path transform="matrix(.2,0,0,.2,1711,1015)" d="M126.076 151.65 192.116 103.89 196.862 110.454 130.823 158.214Z" fill="#ffffff"/>
<path transform="matrix(.2,0,0,.2,1711,1015)" d="M125.826999 143.874 130.8 137.48 194.819 187.268 189.846 193.662Z" fill="#ffffff"/>
<path transform="matrix(.2,0,0,.2,1711,1015)" d="M344.9 182.1H335.9V175.3H335.7C334 177.8 331.6 179.8 328.6 181.2 325.6 182.6 322.5 183.3 319.3 183.3 315.6 183.3 312.3 182.7 309.4 181.4 306.4 180.1 303.9 178.4 301.8 176.1 299.7 173.8 298.1 171.2 297 168.2 295.9 165.2 295.3 161.9 295.3 158.4 295.3 154.9 295.9 151.6 297 148.6 298.1 145.6 299.7 142.9 301.8 140.7 303.9 138.5 306.4 136.7 309.4 135.5 312.4 134.2 315.7 133.6 319.3 133.6 322.7 133.6 325.9 134.3 328.9 135.7 331.9 137.1 334.2 139.1 335.8 141.5H336V106.6H345V182.1H344.9ZM320.3 174.9C322.7 174.9 324.9 174.5 326.8 173.7 328.7 172.9 330.4 171.7 331.7 170.3 333 168.9 334.1 167.1 334.8 165.1 335.5 163.1 335.9 160.9 335.9 158.5 335.9 156.1 335.5 153.9 334.8 151.9 334.1 149.9 333 148.1 331.7 146.7 330.4 145.3 328.7 144.1 326.8 143.3 324.9 142.5 322.7 142.1 320.3 142.1 317.9 142.1 315.7 142.5 313.8 143.3 311.9 144.1 310.2 145.3 308.9 146.7 307.6 148.1 306.5 149.9 305.8 151.9 305.1 153.9 304.7 156.1 304.7 158.5 304.7 160.9 305.1 163.1 305.8 165.1 306.5 167.1 307.6 168.9 308.9 170.3 310.2 171.7 311.9 172.9 313.8 173.7 315.8 174.5 317.9 174.9 320.3 174.9ZM358.4 106.6H367.4V141.5H367.6C369.2 139 371.5 137.1 374.5 135.7 377.5 134.3 380.7 133.6 384.1 133.6 387.8 133.6 391.1 134.2 394 135.5 397 136.8 399.5 138.5 401.6 140.7 403.7 142.9 405.3 145.6 406.4 148.6 407.5 151.6 408.1 154.9 408.1 158.4 408.1 161.9 407.5 165.2 406.4 168.2 405.3 171.2 403.7 173.8 401.6 176.1 399.5 178.4 397 180.1 394 181.4 391 182.7 387.7 183.3 384.1 183.3 380.9 183.3 377.8 182.6 374.8 181.2 371.8 179.8 369.4 177.8 367.7 175.3H367.5V182.1H358.5V106.6H358.4ZM383 174.9C385.4 174.9 387.6 174.5 389.5 173.7 391.4 172.9 393.1 171.7 394.4 170.3 395.7 168.9 396.8 167.1 397.5 165.1 398.2 163.1 398.6 160.9 398.6 158.5 398.6 156.1 398.2 153.9 397.5 151.9 396.8 149.9 395.7 148.1 394.4 146.7 393.1 145.3 391.4 144.1 389.5 143.3 387.6 142.5 385.4 142.1 383 142.1 380.6 142.1 378.4 142.5 376.5 143.3 374.6 144.1 372.9 145.3 371.6 146.7 370.3 148.1 369.2 149.9 368.5 151.9 367.8 153.9 367.4 156.1 367.4 158.5 367.4 160.9 367.8 163.1 368.5 165.1 369.2 167.1 370.3 168.9 371.6 170.3 372.9 171.7 374.6 172.9 376.5 173.7 378.4 174.5 380.6 174.9 383 174.9ZM466.9 182.1H457.9V175.3H457.7C456 177.8 453.6 179.8 450.6 181.2 447.6 182.6 444.5 183.3 441.3 183.3 437.6 183.3 434.3 182.7 431.4 181.4 428.4 180.1 425.9 178.4 423.8 176.1 421.7 173.8 420.1 171.2 419 168.2 417.9 165.2 417.3 161.9 417.3 158.4 417.3 154.9 417.9 151.6 419 148.6 420.1 145.6 421.7 142.9 423.8 140.7 425.9 138.5 428.4 136.7 431.4 135.5 434.4 134.2 437.7 133.6 441.3 133.6 444.7 133.6 447.9 134.3 450.9 135.7 453.9 137.1 456.2 139.1 457.8 141.5H458V106.6H467V182.1H466.9ZM442.3 174.9C444.7 174.9 446.9 174.5 448.8 173.7 450.7 172.9 452.4 171.7 453.7 170.3 455 168.9 456.1 167.1 456.8 165.1 457.5 163.1 457.9 160.9 457.9 158.5 457.9 156.1 457.5 153.9 456.8 151.9 456.1 149.9 455 148.1 453.7 146.7 452.4 145.3 450.7 144.1 448.8 143.3 446.9 142.5 444.7 142.1 442.3 142.1 439.9 142.1 437.7 142.5 435.8 143.3 433.9 144.1 432.2 145.3 430.9 146.7 429.6 148.1 428.5 149.9 427.8 151.9 427.1 153.9 426.7 156.1 426.7 158.5 426.7 160.9 427.1 163.1 427.8 165.1 428.5 167.1 429.6 168.9 430.9 170.3 432.2 171.7 433.9 172.9 435.8 173.7 437.7 174.5 439.9 174.9 442.3 174.9ZM479 117.8C479 116 479.6 114.5 480.9 113.2 482.2 111.9 483.7 111.3 485.5 111.3 487.3 111.3 488.8 111.9 490.1 113.2 491.4 114.5 492 116 492 117.8 492 119.6 491.4 121.1 490.1 122.4 488.8 123.7 487.3 124.3 485.5 124.3 483.7 124.3 482.2 123.7 480.9 122.4 479.7 121.1 479 119.6 479 117.8ZM481.1 134.8H490.1V182.1H481.1V134.8ZM504.6 140.5C507.1 138.2 510.1 136.4 513.4 135.3 516.7 134.1 520.1 133.6 523.4 133.6 526.9 133.6 529.8 134 532.3 134.9 534.8 135.8 536.8 136.9 538.4 138.4 540 139.9 541.2 141.5 541.9 143.4 542.7 145.3 543 147.3 543 149.3V173.5C543 175.2 543 176.7 543.1 178.1 543.2 179.5 543.3 180.8 543.4 182.1H535.4C535.2 179.7 535.1 177.3 535.1 174.9H535C533 178 530.6 180.1 527.9 181.4 525.2 182.7 522 183.3 518.4 183.3 516.2 183.3 514.1 183 512.1 182.4 510.1 181.8 508.4 180.9 506.9 179.7 505.4 178.5 504.2 177 503.4 175.3 502.5 173.5 502.1 171.5 502.1 169.2 502.1 166.1 502.8 163.6 504.1 161.5 505.5 159.4 507.3 157.8 509.7 156.5 512.1 155.2 514.8 154.3 518 153.7 521.2 153.1 524.5 152.9 528.1 152.9H534.7V150.9C534.7 149.7 534.5 148.5 534 147.3 533.5 146.1 532.8 145 531.9 144.1 531 143.1 529.8 142.4 528.4 141.8 527 141.2 525.3 141 523.4 141 521.7 141 520.2 141.2 518.9 141.5 517.6 141.8 516.4 142.2 515.4 142.7 514.3 143.2 513.4 143.8 512.5 144.4 511.6 145.1 510.8 145.7 510 146.3L504.6 140.5ZM529.9 159.3C527.8 159.3 525.6 159.4 523.4 159.6 521.2 159.8 519.1 160.3 517.3 160.9 515.5 161.6 514 162.5 512.8 163.7 511.6 164.9 511.1 166.4 511.1 168.3 511.1 171 512 173 513.8 174.2 515.6 175.4 518.1 176 521.2 176 523.7 176 525.8 175.6 527.5 174.8 529.2 174 530.6 172.9 531.7 171.6 532.8 170.3 533.5 168.8 534 167.2 534.5 165.6 534.7 164 534.7 162.4V159.4H529.9V159.3ZM603.6 181.7C603.6 185.3 603 188.6 601.8 191.5 600.6 194.5 598.8 197 596.6 199.2 594.3 201.4 591.6 203 588.4 204.2 585.2 205.4 581.7 206 577.8 206 573.3 206 569.1 205.4 565.4 204.1 561.6 202.8 558.1 200.6 554.7 197.5L560.8 189.9C563.1 192.4 565.7 194.3 568.4 195.6 571.1 196.9 574.2 197.5 577.7 197.5 581 197.5 583.8 197 586 196.1 588.2 195.1 589.9 193.9 591.2 192.4 592.5 190.9 593.4 189.1 593.9 187.2 594.4 185.2 594.7 183.3 594.7 181.3V174.3H594.4C592.7 177.2 590.3 179.3 587.4 180.6 584.4 182 581.3 182.6 578.1 182.6 574.6 182.6 571.4 182 568.5 180.8 565.5 179.6 563 177.9 560.9 175.7 558.8 173.5 557.1 171 555.9 168 554.7 165 554.1 161.8 554.1 158.4 554.1 154.9 554.7 151.7 555.8 148.7 556.9 145.7 558.5 143 560.6 140.8 562.7 138.5 565.2 136.8 568.2 135.5 571.2 134.2 574.5 133.6 578.1 133.6 581.3 133.6 584.4 134.3 587.4 135.7 590.4 137.1 592.8 139.1 594.5 141.6H594.7V134.8H603.7L603.6 181.7ZM579.1 141.9C576.7 141.9 574.5 142.3 572.6 143.1 570.7 143.9 569 145.1 567.7 146.5 566.4 147.9 565.3 149.7 564.6 151.7 563.9 153.7 563.5 155.9 563.5 158.3 563.5 163.1 564.9 166.9 567.7 169.8 570.5 172.7 574.3 174.1 579.1 174.1 583.9 174.1 587.7 172.7 590.5 169.8 593.3 166.9 594.7 163.1 594.7 158.3 594.7 155.9 594.3 153.7 593.6 151.7 592.9 149.7 591.8 147.9 590.5 146.5 589.2 145.1 587.5 143.9 585.6 143.1 583.6 142.4 581.5 141.9 579.1 141.9ZM617.2 134.8H626.2V142.1H626.4C627 140.8 627.8 139.7 628.8 138.7 629.8 137.7 630.9 136.8 632.1 136.1 633.3 135.4 634.7 134.8 636.1 134.4 637.6 134 639 133.8 640.5 133.8 642 133.8 643.3 134 644.5 134.4L644.1 144.1C643.4 143.9 642.6 143.7 641.9 143.6 641.2 143.5 640.4 143.4 639.7 143.4 635.3 143.4 631.9 144.6 629.6 147.1 627.3 149.6 626.1 153.4 626.1 158.6V182.4H617.1L617.2 134.8ZM654.3 140.5C656.8 138.2 659.8 136.4 663.1 135.3 666.4 134.1 669.8 133.6 673.1 133.6 676.6 133.6 679.5 134 682 134.9 684.5 135.8 686.5 136.9 688.1 138.4 689.7 139.9 690.9 141.5 691.6 143.4 692.4 145.3 692.7 147.3 692.7 149.3V173.5C692.7 175.2 692.7 176.7 692.8 178.1 692.9 179.5 693 180.8 693.1 182.1H685.1C684.9 179.7 684.8 177.3 684.8 174.9H684.6C682.6 178 680.2 180.1 677.5 181.4 674.8 182.7 671.6 183.3 668 183.3 665.8 183.3 663.7 183 661.7 182.4 659.7 181.8 658 180.9 656.5 179.7 655 178.5 653.8 177 653 175.3 652.1 173.5 651.7 171.5 651.7 169.2 651.7 166.1 652.4 163.6 653.7 161.5 655.1 159.4 656.9 157.8 659.3 156.5 661.7 155.2 664.4 154.3 667.6 153.7 670.8 153.1 674.1 152.9 677.7 152.9H684.3V150.9C684.3 149.7 684.1 148.5 683.6 147.3 683.1 146.1 682.4 145 681.5 144.1 680.6 143.1 679.4 142.4 678 141.8 676.6 141.2 674.9 141 673 141 671.3 141 669.8 141.2 668.5 141.5 667.2 141.8 666 142.2 665 142.7 663.9 143.2 663 143.8 662.1 144.4 661.2 145.1 660.4 145.7 659.6 146.3L654.3 140.5ZM679.7 159.3C677.6 159.3 675.4 159.4 673.2 159.6 671 159.8 668.9 160.3 667.1 160.9 665.3 161.6 663.8 162.5 662.6 163.7 661.4 164.9 660.9 166.4 660.9 168.3 660.9 171 661.8 173 663.6 174.2 665.4 175.4 667.9 176 671 176 673.5 176 675.6 175.6 677.3 174.8 679 174 680.4 172.9 681.5 171.6 682.6 170.3 683.3 168.8 683.8 167.2 684.3 165.6 684.5 164 684.5 162.4V159.4H679.7V159.3ZM705.9 134.8H714.3V142.2H714.5C714.7 141.5 715.2 140.7 716 139.7 716.8 138.7 717.9 137.8 719.2 136.9 720.5 136 722 135.2 723.8 134.6 725.6 134 727.5 133.7 729.6 133.7 733.1 133.7 736.1 134.4 738.5 135.9 740.9 137.4 742.9 139.6 744.4 142.5 745.9 139.6 748.1 137.4 750.9 135.9 753.7 134.4 756.5 133.7 759.4 133.7 763.1 133.7 766.1 134.3 768.4 135.5 770.7 136.7 772.6 138.3 773.9 140.2 775.2 142.2 776.1 144.4 776.6 146.9 777.1 149.4 777.3 152 777.3 154.6V182.2H768.3V155.8C768.3 154 768.2 152.3 768 150.6 767.8 148.9 767.3 147.5 766.6 146.2 765.9 144.9 764.8 143.9 763.5 143.2 762.2 142.4 760.4 142.1 758.2 142.1 753.9 142.1 750.8 143.4 748.9 146.1 747 148.8 746.1 152.2 746.1 156.4V182.3H737.1V157.5C737.1 155.2 737 153.2 736.8 151.3 736.6 149.4 736.1 147.8 735.4 146.5 734.7 145.1 733.7 144.1 732.4 143.3 731.1 142.5 729.4 142.2 727.2 142.2 725.6 142.2 724.1 142.5 722.6 143.1 721.1 143.7 719.8 144.7 718.7 145.9 717.6 147.2 716.7 148.8 716 150.7 715.3 152.7 715 155 715 157.6V182.2H706V134.8H705.9Z" fill="#2161cf"/>
<path transform="matrix(.2,0,0,.2,1711,1015)" d="M798.1 182.7C796.3 182.7 794.8 182.1 793.5 180.8 792.2 179.5 791.6 178 791.6 176.2 791.6 174.4 792.2 172.9 793.5 171.6 794.8 170.3 796.3 169.7 798.1 169.7 799.9 169.7 801.4 170.3 802.7 171.6 804 172.9 804.6 174.4 804.6 176.2 804.6 178 804 179.5 802.7 180.8 801.4 182 799.9 182.7 798.1 182.7ZM817.3 117.799999C817.3 116 817.9 114.5 819.2 113.2 820.5 111.9 822 111.299999 823.8 111.299999 825.6 111.299999 827.1 111.9 828.4 113.2 829.7 114.5 830.3 116 830.3 117.799999 830.3 119.6 829.7 121.1 828.4 122.4 827.1 123.7 825.6 124.299999 823.8 124.299999 822 124.299999 820.5 123.7 819.2 122.4 818 121.1 817.3 119.6 817.3 117.799999ZM819.4 134.8H828.4V182.1H819.4V134.8ZM840.4 158.4C840.4 154.9 841 151.7 842.3 148.7 843.6 145.7 845.4 143.1 847.6 140.8 849.9 138.5 852.5 136.8 855.6 135.5 858.7 134.2 862 133.6 865.5 133.6 869 133.6 872.3 134.2 875.4 135.5 878.5 136.8 881.1 138.6 883.4 140.8 885.7 143.1 887.4 145.7 888.7 148.7 890 151.7 890.6 154.9 890.6 158.4 890.6 161.9 890 165.1 888.7 168.1 887.4 171.1 885.6 173.8 883.4 176 881.1 178.2 878.5 180 875.4 181.3 872.3 182.6 869 183.2 865.5 183.2 862 183.2 858.7 182.6 855.6 181.3 852.5 180 849.9 178.2 847.6 176 845.3 173.8 843.6 171.1 842.3 168.1 841.1 165.1 840.4 161.9 840.4 158.4ZM850 158.4C850 160.8 850.4 163 851.1 165 851.8 167 852.9 168.8 854.2 170.2 855.5 171.6 857.2 172.8 859.1 173.6 861 174.4 863.2 174.8 865.6 174.8 868 174.8 870.2 174.4 872.1 173.6 874 172.8 875.7 171.6 877 170.2 878.3 168.8 879.4 167 880.1 165 880.8 163 881.2 160.8 881.2 158.4 881.2 156 880.8 153.8 880.1 151.8 879.4 149.8 878.3 148 877 146.6 875.7 145.2 874 144 872.1 143.2 870.2 142.4 868 142 865.6 142 863.2 142 861 142.4 859.1 143.2 857.2 144 855.5 145.2 854.2 146.6 852.9 148 851.8 149.8 851.1 151.8 850.4 153.8 850 156 850 158.4Z" fill="#428cff"/>
</g>
<g clip-path="url(#clip_1)">
<g clip-path="url(#clip_2)">
<path transform="matrix(1.0943378,0,0,1.0943378,308.6016,419.94053)" stroke-width="1" stroke-linecap="butt" stroke-miterlimit="10" stroke-linejoin="miter" fill="none" stroke="#9c9ca3" d="M32 50H42 60.860429C64.30782 50 66.031528 51.723699 66.031528 55.171094 66.031528 58.61849 67.75522 60.34219 71.202617 60.34219H90.06304 94.06304 90.06304 71.202617C67.75522 60.34219 66.031528 58.61849 66.031528 55.171094 66.031528 51.723699 64.30782 50 60.860429 50H42 32ZM32 50H22M100.06304 60.34219H110.06304M22 46 31 50 22 54M100.06304 60.34219 100.0054 60.92746 99.83468 61.49024 99.55745 62.0089 99.184368 62.46351 98.72975 62.836599 98.21109 63.113828 97.648319 63.284543 97.06304 63.34219 96.477779 63.284543 95.91499 63.113828 95.39633 62.836599 94.94173 62.46351 94.568637 62.0089 94.291408 61.49024 94.12069 60.92746 94.06304 60.34219 94.12069 59.756917 94.291408 59.194139 94.568637 58.675477 94.94173 58.220869 95.39633 57.84778 95.91499 57.57055 96.477779 57.399835 97.06304 57.34219 97.648319 57.399835 98.21109 57.57055 98.72975 57.84778 99.184368 58.220869 99.55745 58.675477 99.83468 59.194139 100.0054 59.756917 100.06304 60.34219"/>
<text fill-opacity="0" xml:space="preserve" transform="matrix(1.0943378 0 0 1.0943378 55.558774 422.1292)" font-size="14" font-family="Open Sans"><tspan y="43" x="256.22917">*</tspan></text>
<text fill-opacity="0" xml:space="preserve" transform="matrix(1.0943378 0 0 1.0943378 55.558774 422.1292)" font-size="14" font-family="Open Sans"><tspan y="53.34219" x="314.83387 322.82786 326.49586 330.16386">0..1</tspan></text>
</g>
<g clip-path="url(#clip_3)">
<path transform="matrix(1.0943378,0,0,1.0943378,682.0906,431.2584)" stroke-width="1" stroke-linecap="butt" stroke-miterlimit="10" stroke-linejoin="miter" fill="none" stroke="#9c9ca3" d="M32 50H42 47.08555C50.47591 50 52.171094 51.695184 52.171094 55.08555V59.9917C52.171094 63.382066 53.866277 65.07725 57.25664 65.07725H62.34219 66.342189 62.34219 57.25664C53.866277 65.07725 52.171094 63.382066 52.171094 59.9917V55.08555C52.171094 51.695184 50.47591 50 47.08555 50H42 32ZM32 50H22M72.342189 65.07725H82.342189M22 46 31 50 22 54M72.342189 65.07725 72.284549 65.66252 72.11382 66.225299 71.83659 66.74396 71.46351 67.19857 71.008899 67.571659 70.49024 67.848888 69.92746 68.0196 69.342189 68.07725 68.75692 68.0196 68.19414 67.848888 67.675479 67.571659 67.22087 67.19857 66.84778 66.74396 66.57055 66.225299 66.39983 65.66252 66.342189 65.07725 66.39983 64.491977 66.57055 63.929197 66.84778 63.410539 67.22087 62.955926 67.675479 62.58284 68.19414 62.305608 68.75692 62.13489 69.342189 62.077249 69.92746 62.13489 70.49024 62.305608 71.008899 62.58284 71.46351 62.955926 71.83659 63.410539 72.11382 63.929197 72.284549 64.491977 72.342189 65.07725"/>
<text fill-opacity="0" xml:space="preserve" transform="matrix(1.0943378 0 0 1.0943378 55.558774 422.1292)" font-size="14" font-family="Open Sans"><tspan y="53.34219" x="597.52139">*</tspan></text>
<text fill-opacity="0" xml:space="preserve" transform="matrix(1.0943378 0 0 1.0943378 55.558774 422.1292)" font-size="14" font-family="Open Sans"><tspan y="68.41943" x="628.4052 636.39926 640.06729 643.7353">0..1</tspan></text>
</g>
<g clip-path="url(#clip_4)">
<path transform="matrix(1.0943378,0,0,1.0943378,1025.2435,444.19306)" stroke-width="1" stroke-linecap="butt" stroke-miterlimit="10" stroke-linejoin="miter" fill="none" stroke="#9c9ca3" d="M32 53.257604H42 95.992618C97.07848 53.257604 97.621417 52.71467 97.621417 51.628805 97.621417 50.542936 98.164348 50 99.25021 50H153.24283 157.24283 153.24283 99.25021C98.164348 50 97.621417 50.542936 97.621417 51.628805 97.621417 52.71467 97.07848 53.257604 95.992618 53.257604H42 32ZM32 53.257604H22M163.24283 50H173.24283M22 49.257604 31 53.257604 22 57.257604M163.24283 50 163.18518 50.58527 163.01447 51.14805 162.73725 51.66671 162.36415 52.12132 161.90955 52.494409 161.39089 52.771638 160.8281 52.942358 160.24283 53 159.65756 52.942358 159.09477 52.771638 158.57611 52.494409 158.1215 52.12132 157.74842 51.66671 157.47119 51.14805 157.30048 50.58527 157.24283 50 157.30048 49.41473 157.47119 48.85195 157.74842 48.33329 158.1215 47.87868 158.57611 47.505594 159.09477 47.228364 159.65756 47.057645 160.24283 47 160.8281 47.057645 161.39089 47.228364 161.90955 47.505594 162.36415 47.87868 162.73725 48.33329 163.01447 48.85195 163.18518 49.41473 163.24283 50"/>
<text fill-opacity="0" xml:space="preserve" transform="matrix(1.0943378 0 0 1.0943378 55.558774 422.1292)" font-size="14" font-family="Open Sans"><tspan y="68.41943" x="911.0927">*</tspan></text>
<text fill-opacity="0" xml:space="preserve" transform="matrix(1.0943378 0 0 1.0943378 55.558774 422.1292)" font-size="14" font-family="Open Sans"><tspan y="65.161838" x="1032.8772 1040.8712 1044.5392 1048.2072">0..1</tspan></text>
</g>
<g clip-path="url(#clip_5)">
<path transform="matrix(1.0943378,0,0,1.0943378,1467.8724,444.19306)" stroke-width="1" stroke-linecap="butt" stroke-miterlimit="10" stroke-linejoin="miter" fill="none" stroke="#9c9ca3" d="M32 50H42 61.447809C62.533678 50 63.07661 50.542936 63.07661 51.628805 63.07661 52.71467 63.619546 53.257604 64.705417 53.257604H84.15322 88.15322 84.15322 64.705417C63.619546 53.257604 63.07661 52.71467 63.07661 51.628805 63.07661 50.542936 62.533678 50 61.447809 50H42 32ZM32 50H22M94.15322 53.257604H104.15322M22 46 31 50 22 54M94.15322 53.257604 94.09558 53.842878 93.92486 54.405656 93.64763 54.924314 93.27454 55.378927 92.81993 55.752016 92.30127 56.029245 91.738498 56.19996 91.15322 56.257604 90.56795 56.19996 90.00517 56.029245 89.48651 55.752016 89.0319 55.378927 88.65881 54.924314 88.381587 54.405656 88.21087 53.842878 88.15322 53.257604 88.21087 52.672334 88.381587 52.109556 88.65881 51.590894 89.0319 51.136285 89.48651 50.763196 90.00517 50.485967 90.56795 50.315248 91.15322 50.257604 91.738498 50.315248 92.30127 50.485967 92.81993 50.763196 93.27454 51.136285 93.64763 51.590894 93.92486 52.109556 94.09558 52.672334 94.15322 53.257604"/>
<text fill-opacity="0" xml:space="preserve" transform="matrix(1.0943378 0 0 1.0943378 55.558774 422.1292)" font-size="14" font-family="Open Sans"><tspan y="65.161838" x="1315.5647">*</tspan></text>
<text fill-opacity="0" xml:space="preserve" transform="matrix(1.0943378 0 0 1.0943378 55.558774 422.1292)" font-size="14" font-family="Open Sans"><tspan y="68.41943" x="1368.2597 1376.2537 1379.9216 1383.5896">0..1</tspan></text>
</g>
<path transform="matrix(1.0943378,0,0,1.0943378,1581.8513,449.94667)" d="M3 0H250.22916C251.88602 0 253.22916 1.3431457 253.22916 3V189C253.22916 190.65686 251.88602 192 250.22916 192H3C1.3431457 192 .0000000000000004 190.65686 0 189V3C0 1.3431457 1.3431457 .0000000000000004 3 0Z" fill="#383840"/>
<g clip-path="url(#clip_6)">
<path transform="matrix(1.0943378,0,0,1.0943378,1581.8513,449.94667)" d="M3 0H250.22916C251.88602 0 253.22916 1.3431457 253.22916 3V32H0V3C0 1.3431457 1.3431457 .0000000000000004 3 0Z" fill="#212121"/>
<text fill="#ffffff" xml:space="preserve" transform="matrix(1.0943378 0 0 1.0943378 55.558774 422.1292)" font-size="13" font-family="Open Sans" font-weight="bold"><tspan y="44.669435" x="1404.7179 1410.3599 1418.2119 1424.1139 1431.7839 1436.815 1444.667 1451.128 1456.4711 1464.687">tarefas_bd</tspan></text>
</g>
<g clip-path="url(#clip_7)">
<path transform="matrix(1.0943378,0,0,1.0943378,1581.8513,484.96546)" d="M0 0H253.22916V32H0Z" fill="#383840"/>
<text fill="#c5c5c7" xml:space="preserve" transform="matrix(1.0943378 0 0 1.0943378 55.558774 422.1292)" font-size="13" font-family="Open Sans"><tspan y="76.66943" x="1404.7179 1407.9939">id</tspan></text>
<text fill="#a5a5a7" xml:space="preserve" transform="matrix(1.0943378 0 0 1.0943378 55.558774 422.1292)" font-size="13" font-family="Inconsolata"><tspan y="76.66943" x="1572.9472 1579.4472 1585.9472 1592.4472 1598.9472 1605.4472 1611.9472 1618.4472 1624.9472 1631.4472">binary(16)</tspan></text>
</g>
<g clip-path="url(#clip_8)">
<path transform="matrix(1.0943378,0,0,1.0943378,1581.8513,519.98428)" d="M0 0H253.22916V32H0Z" fill="#383840"/>
<text fill="#c5c5c7" xml:space="preserve" transform="matrix(1.0943378 0 0 1.0943378 55.558774 422.1292)" font-size="13" font-family="Open Sans"><tspan y="108.66943" x="1404.7179 1412.6609 1419.9539 1426.1419 1432.3689 1437.6729 1440.9489 1447.1759 1454.3909">descricao</tspan></text>
<text fill="#a5a5a7" xml:space="preserve" transform="matrix(1.0943378 0 0 1.0943378 55.558774 422.1292)" font-size="13" font-family="Inconsolata"><tspan y="108.66943" x="1559.9472 1566.4472 1572.9472 1579.4472 1585.9472 1592.4472 1598.9472 1605.4472 1611.9472 1618.4472 1624.9472 1631.4472">varchar(225)</tspan></text>
</g>
<g clip-path="url(#clip_9)">
<path transform="matrix(1.0943378,0,0,1.0943378,1581.8513,555.00308)" d="M0 0H253.22916V32H0Z" fill="#383840"/>
<text fill="#c5c5c7" xml:space="preserve" transform="matrix(1.0943378 0 0 1.0943378 55.558774 422.1292)" font-size="13" font-family="Open Sans"><tspan y="140.66944" x="1404.7179 1412.6609 1419.8759 1424.5039 1431.7189 1437.3999 1443.887 1451.1799 1459.1489 1465.376 1468.652 1480.677 1487.97 1495.939 1500.567">data_vencimento</tspan></text>
<text fill="#a5a5a7" xml:space="preserve" transform="matrix(1.0943378 0 0 1.0943378 55.558774 422.1292)" font-size="13" font-family="Inconsolata"><tspan y="140.66944" x="1566.4472 1572.9472 1579.4472 1585.9472 1592.4472 1598.9472 1605.4472 1611.9472 1618.4472 1624.9472 1631.4472">datetime(6)</tspan></text>
</g>
<g clip-path="url(#clip_10)">
<path transform="matrix(1.0943378,0,0,1.0943378,1581.8513,590.0219)" d="M0 0H253.22916V32H0Z" fill="#383840"/>
<text fill="#c5c5c7" xml:space="preserve" transform="matrix(1.0943378 0 0 1.0943378 55.558774 422.1292)" font-size="13" font-family="Open Sans"><tspan y="172.66944" x="1404.7179 1412.6609 1417.9649 1421.2409 1429.0538 1434.3578 1437.6338 1445.5768 1452.7918 1460.7348 1468.0277">prioridades</tspan></text>
<text fill="#a5a5a7" xml:space="preserve" transform="matrix(1.0943378 0 0 1.0943378 55.558774 422.1292)" font-size="13" font-family="Inconsolata"><tspan y="172.66944" x="1559.9472 1566.4472 1572.9472 1579.4472 1585.9472 1592.4472 1598.9472 1605.4472 1611.9472 1618.4472 1624.9472 1631.4472">varchar(255)</tspan></text>
</g>
<g clip-path="url(#clip_11)">
<path transform="matrix(1.0943378,0,0,1.0943378,1581.8513,625.0407)" d="M0 0H253.22916V29C253.22916 30.656855 251.88602 32 250.22916 32H3C1.3431457 32 .0000000000000004 30.656855 0 29Z" fill="#383840"/>
<text fill="#c5c5c7" xml:space="preserve" transform="matrix(1.0943378 0 0 1.0943378 55.558774 422.1292)" font-size="13" font-family="Open Sans"><tspan y="204.66944" x="1404.7179 1410.9059 1415.5339 1422.7489 1427.377 1435.346">status</tspan></text>
<text fill="#a5a5a7" xml:space="preserve" transform="matrix(1.0943378 0 0 1.0943378 55.558774 422.1292)" font-size="13" font-family="Inconsolata"><tspan y="204.66944" x="1559.9472 1566.4472 1572.9472 1579.4472 1585.9472 1592.4472 1598.9472 1605.4472 1611.9472 1618.4472 1624.9472 1631.4472">varchar(255)</tspan></text>
</g>
<path transform="matrix(1.0943378,0,0,1.0943378,55.558774,422.1292)" d="M3 0H250.22916C251.88602 0 253.22916 1.3431457 253.22916 3V189C253.22916 190.65686 251.88602 192 250.22916 192H3C1.3431457 192 .0000000000000004 190.65686 0 189V3C0 1.3431457 1.3431457 .0000000000000004 3 0Z" fill="#383840"/>
<g clip-path="url(#clip_12)">
<path transform="matrix(1.0943378,0,0,1.0943378,55.558774,422.1292)" d="M3 0H250.22916C251.88602 0 253.22916 1.3431457 253.22916 3V32H0V3C0 1.3431457 1.3431457 .0000000000000004 3 0Z" fill="#212121"/>
<text fill="#ffffff" xml:space="preserve" transform="matrix(1.0943378 0 0 1.0943378 55.558774 422.1292)" font-size="13" font-family="Open Sans" font-weight="bold"><tspan y="19.25" x="10 18.541 25.002 32.672 38.574 47.531003 56.072004 64.119 69.761 77.613 84.295 92.146999">userAnotacao</tspan></text>
</g>
<g clip-path="url(#clip_13)">
<path transform="matrix(1.0943378,0,0,1.0943378,55.558774,457.148)" d="M0 0H253.22916V32H0Z" fill="#383840"/>
<text fill="#c5c5c7" xml:space="preserve" transform="matrix(1.0943378 0 0 1.0943378 55.558774 422.1292)" font-size="13" font-family="Open Sans"><tspan y="51.25" x="10 13.276">id</tspan></text>
<path transform="matrix(.021886757,0,0,.021886757,83.1452,467.4129)" d="M225.493 323.087C215.729 323.087 206.548 319.282 199.63 312.376 144.998 257.738 144.998 168.837 199.63 114.201999L272.849 40.983C299.272 14.554 334.459-.0000000000000213 371.932-.0000000000000213 409.405-.0000000000000213 444.592 14.554 471.014 40.983 525.646 95.618 525.646 184.519 471.014 239.15399L422.205 287.966C415.299 294.875 406.118 298.68 396.342 298.683 386.578 298.683 377.397 294.878 370.479 287.972 363.573 281.063 359.762 271.876 359.762 262.103 359.762 252.333 363.572 243.146 370.479 236.237L419.288 187.425C445.401 161.312 445.401 118.826 419.288 92.715 406.666 80.093 389.841 73.139 371.932 73.139 354.023 73.139 337.198 80.093 324.576 92.715L251.357 165.934C225.244 192.044 225.244 234.53 251.357 260.641 265.622 274.90299 265.622 298.111 251.357 312.373 244.438 319.283 235.257 323.087 225.493 323.087ZM140.068 512C102.595 512 67.408 497.446 40.986 471.017-13.646 416.382-13.646 327.481 40.986 272.846L77.602 236.233C84.508 229.327 93.701 225.522 103.465 225.522 113.229 225.522 122.422 229.329 129.328 236.239 136.234 243.145 140.045 252.332 140.045 262.102 140.045 271.875 136.235 281.062 129.328 287.971L92.712 324.581C66.599 350.688 66.599 393.174 92.712 419.285 105.334 431.907 122.159 438.861 140.068 438.861 157.977 438.861 174.802 431.91 187.424 419.285L260.643 346.066C286.756 319.956 286.756 277.47 260.643 251.359 253.737 244.45 249.926 235.263 249.926 225.493 249.926 215.723 253.736 206.536 260.643 199.627 267.549 192.718 276.742 188.916 286.506 188.916 296.27 188.916 305.463 192.717 312.369 199.624 367.001 254.262 367.001 343.163 312.369 397.798L239.15 471.017C212.728 497.446 177.541 512 140.068 512Z" fill="#c4c4c7"/>
<text fill="#a5a5a7" xml:space="preserve" transform="matrix(1.0943378 0 0 1.0943378 55.558774 422.1292)" font-size="13" font-family="Inconsolata"><tspan y="51.25" x="178.22916 184.72916 191.22916 197.72916 204.22916 210.72916 217.22916 223.72916 230.22916 236.72916">binary(16)</tspan></text>
</g>
<g clip-path="url(#clip_14)">
<path transform="matrix(1.0943378,0,0,1.0943378,55.558774,492.16685)" d="M0 0H253.22916V32H0Z" fill="#383840"/>
<text fill="#c5c5c7" xml:space="preserve" transform="matrix(1.0943378 0 0 1.0943378 55.558774 422.1292)" font-size="13" font-family="Open Sans"><tspan y="83.25" x="10 17.943 25.236002 31.424002 37.651 42.955 46.231004 52.458005 59.673006">descricao</tspan></text>
<text fill="#a5a5a7" xml:space="preserve" transform="matrix(1.0943378 0 0 1.0943378 55.558774 422.1292)" font-size="13" font-family="Inconsolata"><tspan y="83.25" x="165.22916 171.72916 178.22916 184.72916 191.22916 197.72916 204.22916 210.72916 217.22916 223.72916 230.22916 236.72916">varchar(225)</tspan></text>
</g>
<g clip-path="url(#clip_15)">
<path transform="matrix(1.0943378,0,0,1.0943378,55.558774,527.18569)" d="M0 0H253.22916V32H0Z" fill="#383840"/>
<text fill="#c5c5c7" xml:space="preserve" transform="matrix(1.0943378 0 0 1.0943378 55.558774 422.1292)" font-size="13" font-family="Open Sans"><tspan y="115.25" x="10 17.943 25.158 29.786002 37.001 42.682 49.169 56.461999 64.431 70.658 73.934 85.959 93.252 101.221 105.849">data_vencimento</tspan></text>
<text fill="#a5a5a7" xml:space="preserve" transform="matrix(1.0943378 0 0 1.0943378 55.558774 422.1292)" font-size="13" font-family="Inconsolata"><tspan y="115.25" x="171.72916 178.22916 184.72916 191.22916 197.72916 204.22916 210.72916 217.22916 223.72916 230.22916 236.72916">datetime(6)</tspan></text>
</g>
<g clip-path="url(#clip_16)">
<path transform="matrix(1.0943378,0,0,1.0943378,55.558774,562.20449)" d="M0 0H253.22916V32H0Z" fill="#383840"/>
<text fill="#c5c5c7" xml:space="preserve" transform="matrix(1.0943378 0 0 1.0943378 55.558774 422.1292)" font-size="13" font-family="Open Sans"><tspan y="147.25" x="10 17.943 23.247002 26.523003 34.336004 39.640005 42.916006 50.859006 58.074007 66.017009 73.310009">prioridades</tspan></text>
<text fill="#a5a5a7" xml:space="preserve" transform="matrix(1.0943378 0 0 1.0943378 55.558774 422.1292)" font-size="13" font-family="Inconsolata"><tspan y="147.25" x="165.22916 171.72916 178.22916 184.72916 191.22916 197.72916 204.22916 210.72916 217.22916 223.72916 230.22916 236.72916">varchar(255)</tspan></text>
</g>
<g clip-path="url(#clip_17)">
<path transform="matrix(1.0943378,0,0,1.0943378,55.558774,597.22329)" d="M0 0H253.22916V29C253.22916 30.656855 251.88602 32 250.22916 32H3C1.3431457 32 .0000000000000004 30.656855 0 29Z" fill="#383840"/>
<text fill="#c5c5c7" xml:space="preserve" transform="matrix(1.0943378 0 0 1.0943378 55.558774 422.1292)" font-size="13" font-family="Open Sans"><tspan y="179.25" x="10 16.188 20.816 28.031 32.659 40.628004">status</tspan></text>
<text fill="#a5a5a7" xml:space="preserve" transform="matrix(1.0943378 0 0 1.0943378 55.558774 422.1292)" font-size="13" font-family="Inconsolata"><tspan y="179.25" x="165.22916 171.72916 178.22916 184.72916 191.22916 197.72916 204.22916 210.72916 217.22916 223.72916 230.22916 236.72916">varchar(255)</tspan></text>
</g>
<path transform="matrix(1.0943378,0,0,1.0943378,429.04774,433.44706)" d="M3 0H250.22916C251.88602 0 253.22916 1.3431457 253.22916 3V189C253.22916 190.65686 251.88602 192 250.22916 192H3C1.3431457 192 .0000000000000004 190.65686 0 189V3C0 1.3431457 1.3431457 .0000000000000004 3 0Z" fill="#383840"/>
<g clip-path="url(#clip_18)">
<path transform="matrix(1.0943378,0,0,1.0943378,429.04777,433.44706)" d="M3 0H250.22916C251.88602 0 253.22916 1.3431457 253.22916 3V32H0V3C0 1.3431457 1.3431457 .0000000000000004 3 0Z" fill="#212121"/>
<text fill="#ffffff" xml:space="preserve" transform="matrix(1.0943378 0 0 1.0943378 55.558774 422.1292)" font-size="13" font-family="Open Sans" font-weight="bold"><tspan y="29.592188" x="351.2922 359.5732 367.6202 376.1612 381.8032 387.7052 395.7522 399.7172 403.6822 411.3522">Controller</tspan></text>
</g>
<g clip-path="url(#clip_19)">
<path transform="matrix(1.0943378,0,0,1.0943378,429.04777,468.46589)" d="M0 0H253.22916V32H0Z" fill="#383840"/>
<text fill="#c5c5c7" xml:space="preserve" transform="matrix(1.0943378 0 0 1.0943378 55.558774 422.1292)" font-size="13" font-family="Open Sans"><tspan y="61.59219" x="351.2922 354.5682">id</tspan></text>
<path transform="matrix(.021886757,0,0,.021886757,456.6342,478.73078)" d="M225.493 323.087C215.729 323.087 206.548 319.282 199.63 312.376 144.998 257.738 144.998 168.837 199.63 114.201999L272.849 40.983C299.272 14.554 334.459-.0000000000000213 371.932-.0000000000000213 409.405-.0000000000000213 444.592 14.554 471.014 40.983 525.646 95.618 525.646 184.519 471.014 239.15399L422.205 287.966C415.299 294.875 406.118 298.68 396.342 298.683 386.578 298.683 377.397 294.878 370.479 287.972 363.573 281.063 359.762 271.876 359.762 262.103 359.762 252.333 363.572 243.146 370.479 236.237L419.288 187.425C445.401 161.312 445.401 118.826 419.288 92.715 406.666 80.093 389.841 73.139 371.932 73.139 354.023 73.139 337.198 80.093 324.576 92.715L251.357 165.934C225.244 192.044 225.244 234.53 251.357 260.641 265.622 274.90299 265.622 298.111 251.357 312.373 244.438 319.283 235.257 323.087 225.493 323.087ZM140.068 512C102.595 512 67.408 497.446 40.986 471.017-13.646 416.382-13.646 327.481 40.986 272.846L77.602 236.233C84.508 229.327 93.701 225.522 103.465 225.522 113.229 225.522 122.422 229.329 129.328 236.239 136.234 243.145 140.045 252.332 140.045 262.102 140.045 271.875 136.235 281.062 129.328 287.971L92.712 324.581C66.599 350.688 66.599 393.174 92.712 419.285 105.334 431.907 122.159 438.861 140.068 438.861 157.977 438.861 174.802 431.91 187.424 419.285L260.643 346.066C286.756 319.956 286.756 277.47 260.643 251.359 253.737 244.45 249.926 235.263 249.926 225.493 249.926 215.723 253.736 206.536 260.643 199.627 267.549 192.718 276.742 188.916 286.506 188.916 296.27 188.916 305.463 192.717 312.369 199.624 367.001 254.262 367.001 343.163 312.369 397.798L239.15 471.017C212.728 497.446 177.541 512 140.068 512Z" fill="#c4c4c7"/>
<text fill="#a5a5a7" xml:space="preserve" transform="matrix(1.0943378 0 0 1.0943378 55.558774 422.1292)" font-size="13" font-family="Inconsolata"><tspan y="61.59219" x="519.52139 526.02139 532.52139 539.02139 545.52139 552.02139 558.52139 565.02139 571.52139 578.02139">binary(16)</tspan></text>
</g>
<g clip-path="url(#clip_20)">
<path transform="matrix(1.0943378,0,0,1.0943378,429.04777,503.48469)" d="M0 0H253.22916V32H0Z" fill="#383840"/>
<text fill="#c5c5c7" xml:space="preserve" transform="matrix(1.0943378 0 0 1.0943378 55.558774 422.1292)" font-size="13" font-family="Open Sans"><tspan y="93.592189" x="351.2922 359.2352 366.5282 372.7162 378.94319 384.24717 387.52317 393.75016 400.96516">descricao</tspan></text>
<text fill="#a5a5a7" xml:space="preserve" transform="matrix(1.0943378 0 0 1.0943378 55.558774 422.1292)" font-size="13" font-family="Inconsolata"><tspan y="93.592189" x="506.52137 513.02139 519.52139 526.02139 532.52139 539.02139 545.52139 552.02139 558.52139 565.02139 571.52139 578.02139">varchar(225)</tspan></text>
</g>
<g clip-path="url(#clip_21)">
<path transform="matrix(1.0943378,0,0,1.0943378,429.04777,538.5035)" d="M0 0H253.22916V32H0Z" fill="#383840"/>
<text fill="#c5c5c7" xml:space="preserve" transform="matrix(1.0943378 0 0 1.0943378 55.558774 422.1292)" font-size="13" font-family="Open Sans"><tspan y="125.592189" x="351.2922 359.2352 366.4502 371.0782 378.29319 383.97419 390.46119 397.75419 405.72319 411.95018 415.22618 427.25117 434.54417 442.51316 447.14115">data_vencimento</tspan></text>
<text fill="#a5a5a7" xml:space="preserve" transform="matrix(1.0943378 0 0 1.0943378 55.558774 422.1292)" font-size="13" font-family="Inconsolata"><tspan y="125.592189" x="513.02139 519.52139 526.02139 532.52139 539.02139 545.52139 552.02139 558.52139 565.02139 571.52139 578.02139">datetime(6)</tspan></text>
</g>
<g clip-path="url(#clip_22)">
<path transform="matrix(1.0943378,0,0,1.0943378,429.04777,573.52236)" d="M0 0H253.22916V32H0Z" fill="#383840"/>
<text fill="#c5c5c7" xml:space="preserve" transform="matrix(1.0943378 0 0 1.0943378 55.558774 422.1292)" font-size="13" font-family="Open Sans"><tspan y="157.5922" x="351.2922 359.2352 364.53919 367.8152 375.62818 380.93217 384.20817 392.15116 399.36616 407.30915 414.60215">prioridades</tspan></text>
<text fill="#a5a5a7" xml:space="preserve" transform="matrix(1.0943378 0 0 1.0943378 55.558774 422.1292)" font-size="13" font-family="Inconsolata"><tspan y="157.5922" x="506.52137 513.02139 519.52139 526.02139 532.52139 539.02139 545.52139 552.02139 558.52139 565.02139 571.52139 578.02139">varchar(255)</tspan></text>
</g>
<g clip-path="url(#clip_23)">
<path transform="matrix(1.0943378,0,0,1.0943378,429.04777,608.54116)" d="M0 0H253.22916V29C253.22916 30.656855 251.88602 32 250.22916 32H3C1.3431457 32 .0000000000000004 30.656855 0 29Z" fill="#383840"/>
<text fill="#c5c5c7" xml:space="preserve" transform="matrix(1.0943378 0 0 1.0943378 55.558774 422.1292)" font-size="13" font-family="Open Sans"><tspan y="189.5922" x="351.2922 357.4802 362.1082 369.32319 373.95118 381.92018">status</tspan></text>
<text fill="#a5a5a7" xml:space="preserve" transform="matrix(1.0943378 0 0 1.0943378 55.558774 422.1292)" font-size="13" font-family="Inconsolata"><tspan y="189.5922" x="506.52137 513.02139 519.52139 526.02139 532.52139 539.02139 545.52139 552.02139 558.52139 565.02139 571.52139 578.02139">varchar(255)</tspan></text>
</g>
<path transform="matrix(1.0943378,0,0,1.0943378,772.2007,449.94667)" d="M3 0H250.22916C251.88602 0 253.22916 1.3431457 253.22916 3V189C253.22916 190.65686 251.88602 192 250.22916 192H3C1.3431457 192 .0000000000000004 190.65686 0 189V3C0 1.3431457 1.3431457 .0000000000000004 3 0Z" fill="#383840"/>
<g clip-path="url(#clip_24)">
<path transform="matrix(1.0943378,0,0,1.0943378,772.20077,449.94667)" d="M3 0H250.22916C251.88602 0 253.22916 1.3431457 253.22916 3V32H0V3C0 1.3431457 1.3431457 .0000000000000004 3 0Z" fill="#212121"/>
<text fill="#ffffff" xml:space="preserve" transform="matrix(1.0943378 0 0 1.0943378 55.558774 422.1292)" font-size="13" font-family="Open Sans" font-weight="bold"><tspan y="44.669435" x="664.8636 674.4836 682.01058">DTO</tspan></text>
</g>
<g clip-path="url(#clip_25)">
<path transform="matrix(1.0943378,0,0,1.0943378,772.20077,484.96546)" d="M0 0H253.22916V32H0Z" fill="#383840"/>
<text fill="#c5c5c7" xml:space="preserve" transform="matrix(1.0943378 0 0 1.0943378 55.558774 422.1292)" font-size="13" font-family="Open Sans"><tspan y="76.66943" x="664.8636 668.1396">id</tspan></text>
<path transform="matrix(.021886757,0,0,.021886757,799.7872,495.23036)" d="M225.493 323.087C215.729 323.087 206.548 319.282 199.63 312.376 144.998 257.738 144.998 168.837 199.63 114.201999L272.849 40.983C299.272 14.554 334.459-.0000000000000213 371.932-.0000000000000213 409.405-.0000000000000213 444.592 14.554 471.014 40.983 525.646 95.618 525.646 184.519 471.014 239.15399L422.205 287.966C415.299 294.875 406.118 298.68 396.342 298.683 386.578 298.683 377.397 294.878 370.479 287.972 363.573 281.063 359.762 271.876 359.762 262.103 359.762 252.333 363.572 243.146 370.479 236.237L419.288 187.425C445.401 161.312 445.401 118.826 419.288 92.715 406.666 80.093 389.841 73.139 371.932 73.139 354.023 73.139 337.198 80.093 324.576 92.715L251.357 165.934C225.244 192.044 225.244 234.53 251.357 260.641 265.622 274.90299 265.622 298.111 251.357 312.373 244.438 319.283 235.257 323.087 225.493 323.087ZM140.068 512C102.595 512 67.408 497.446 40.986 471.017-13.646 416.382-13.646 327.481 40.986 272.846L77.602 236.233C84.508 229.327 93.701 225.522 103.465 225.522 113.229 225.522 122.422 229.329 129.328 236.239 136.234 243.145 140.045 252.332 140.045 262.102 140.045 271.875 136.235 281.062 129.328 287.971L92.712 324.581C66.599 350.688 66.599 393.174 92.712 419.285 105.334 431.907 122.159 438.861 140.068 438.861 157.977 438.861 174.802 431.91 187.424 419.285L260.643 346.066C286.756 319.956 286.756 277.47 260.643 251.359 253.737 244.45 249.926 235.263 249.926 225.493 249.926 215.723 253.736 206.536 260.643 199.627 267.549 192.718 276.742 188.916 286.506 188.916 296.27 188.916 305.463 192.717 312.369 199.624 367.001 254.262 367.001 343.163 312.369 397.798L239.15 471.017C212.728 497.446 177.541 512 140.068 512Z" fill="#c4c4c7"/>
<text fill="#a5a5a7" xml:space="preserve" transform="matrix(1.0943378 0 0 1.0943378 55.558774 422.1292)" font-size="13" font-family="Inconsolata"><tspan y="76.66943" x="833.0927 839.5927 846.0927 852.5927 859.0927 865.5927 872.0927 878.5927 885.0927 891.5927">binary(16)</tspan></text>
</g>
<g clip-path="url(#clip_26)">
<path transform="matrix(1.0943378,0,0,1.0943378,772.20077,519.98428)" d="M0 0H253.22916V32H0Z" fill="#383840"/>
<text fill="#c5c5c7" xml:space="preserve" transform="matrix(1.0943378 0 0 1.0943378 55.558774 422.1292)" font-size="13" font-family="Open Sans"><tspan y="108.66943" x="664.8636 672.8066 680.0996 686.2876 692.5146 697.8186 701.0946 707.3216 714.5366">descricao</tspan></text>
<text fill="#a5a5a7" xml:space="preserve" transform="matrix(1.0943378 0 0 1.0943378 55.558774 422.1292)" font-size="13" font-family="Inconsolata"><tspan y="108.66943" x="820.0927 826.5927 833.0927 839.5927 846.0927 852.5927 859.0927 865.5927 872.0927 878.5927 885.0927 891.5927">varchar(225)</tspan></text>
</g>
<g clip-path="url(#clip_27)">
<path transform="matrix(1.0943378,0,0,1.0943378,772.20077,555.00308)" d="M0 0H253.22916V32H0Z" fill="#383840"/>
<text fill="#c5c5c7" xml:space="preserve" transform="matrix(1.0943378 0 0 1.0943378 55.558774 422.1292)" font-size="13" font-family="Open Sans"><tspan y="140.66944" x="664.8636 672.8066 680.0216 684.6496 691.8646 697.54568 704.03268 711.3257 719.2947 725.52169 728.79769 740.8227 748.1157 756.0847 760.7127">data_vencimento</tspan></text>
<text fill="#a5a5a7" xml:space="preserve" transform="matrix(1.0943378 0 0 1.0943378 55.558774 422.1292)" font-size="13" font-family="Inconsolata"><tspan y="140.66944" x="826.5927 833.0927 839.5927 846.0927 852.5927 859.0927 865.5927 872.0927 878.5927 885.0927 891.5927">datetime(6)</tspan></text>
</g>
<g clip-path="url(#clip_28)">
<path transform="matrix(1.0943378,0,0,1.0943378,772.20077,590.0219)" d="M0 0H253.22916V32H0Z" fill="#383840"/>
<text fill="#c5c5c7" xml:space="preserve" transform="matrix(1.0943378 0 0 1.0943378 55.558774 422.1292)" font-size="13" font-family="Open Sans"><tspan y="172.66944" x="664.8636 672.8066 678.1106 681.3866 689.1996 694.5036 697.7796 705.7226 712.9376 720.8806 728.17367">prioridades</tspan></text>
<text fill="#a5a5a7" xml:space="preserve" transform="matrix(1.0943378 0 0 1.0943378 55.558774 422.1292)" font-size="13" font-family="Inconsolata"><tspan y="172.66944" x="820.0927 826.5927 833.0927 839.5927 846.0927 852.5927 859.0927 865.5927 872.0927 878.5927 885.0927 891.5927">varchar(255)</tspan></text>
</g>
<g clip-path="url(#clip_29)">
<path transform="matrix(1.0943378,0,0,1.0943378,772.20077,625.0407)" d="M0 0H253.22916V29C253.22916 30.656855 251.88602 32 250.22916 32H3C1.3431457 32 .0000000000000004 30.656855 0 29Z" fill="#383840"/>
<text fill="#c5c5c7" xml:space="preserve" transform="matrix(1.0943378 0 0 1.0943378 55.558774 422.1292)" font-size="13" font-family="Open Sans"><tspan y="204.66944" x="664.8636 671.0516 675.67959 682.8946 687.5226 695.4916">status</tspan></text>
<text fill="#a5a5a7" xml:space="preserve" transform="matrix(1.0943378 0 0 1.0943378 55.558774 422.1292)" font-size="13" font-family="Inconsolata"><tspan y="204.66944" x="820.0927 826.5927 833.0927 839.5927 846.0927 852.5927 859.0927 865.5927 872.0927 878.5927 885.0927 891.5927">varchar(255)</tspan></text>
</g>
<path transform="matrix(1.0943378,0,0,1.0943378,1214.8297,446.3817)" d="M3 0H250.22916C251.88602 0 253.22916 1.3431457 253.22916 3V189C253.22916 190.65686 251.88602 192 250.22916 192H3C1.3431457 192 .0000000000000004 190.65686 0 189V3C0 1.3431457 1.3431457 .0000000000000004 3 0Z" fill="#383840"/>
<g clip-path="url(#clip_30)">
<path transform="matrix(1.0943378,0,0,1.0943378,1214.8297,446.38175)" d="M3 0H250.22916C251.88602 0 253.22916 1.3431457 253.22916 3V32H0V3C0 1.3431457 1.3431457 .0000000000000004 3 0Z" fill="#212121"/>
<text fill="#ffffff" xml:space="preserve" transform="matrix(1.0943378 0 0 1.0943378 55.558774 422.1292)" font-size="13" font-family="Open Sans" font-weight="bold"><tspan y="41.41183" x="1069.3356 1076.4856 1084.1557 1090.0576 1097.4417 1101.4066 1108.0886">Service</tspan></text>
</g>
<g clip-path="url(#clip_31)">
<path transform="matrix(1.0943378,0,0,1.0943378,1214.8297,481.40055)" d="M0 0H253.22916V32H0Z" fill="#383840"/>
<text fill="#c5c5c7" xml:space="preserve" transform="matrix(1.0943378 0 0 1.0943378 55.558774 422.1292)" font-size="13" font-family="Open Sans"><tspan y="73.411838" x="1069.3356 1072.6116">id</tspan></text>
<path transform="matrix(.021886757,0,0,.021886757,1242.416,491.66545)" d="M225.493 323.087C215.729 323.087 206.548 319.282 199.63 312.376 144.998 257.738 144.998 168.837 199.63 114.201999L272.849 40.983C299.272 14.554 334.459-.0000000000000213 371.932-.0000000000000213 409.405-.0000000000000213 444.592 14.554 471.014 40.983 525.646 95.618 525.646 184.519 471.014 239.15399L422.205 287.966C415.299 294.875 406.118 298.68 396.342 298.683 386.578 298.683 377.397 294.878 370.479 287.972 363.573 281.063 359.762 271.876 359.762 262.103 359.762 252.333 363.572 243.146 370.479 236.237L419.288 187.425C445.401 161.312 445.401 118.826 419.288 92.715 406.666 80.093 389.841 73.139 371.932 73.139 354.023 73.139 337.198 80.093 324.576 92.715L251.357 165.934C225.244 192.044 225.244 234.53 251.357 260.641 265.622 274.90299 265.622 298.111 251.357 312.373 244.438 319.283 235.257 323.087 225.493 323.087ZM140.068 512C102.595 512 67.408 497.446 40.986 471.017-13.646 416.382-13.646 327.481 40.986 272.846L77.602 236.233C84.508 229.327 93.701 225.522 103.465 225.522 113.229 225.522 122.422 229.329 129.328 236.239 136.234 243.145 140.045 252.332 140.045 262.102 140.045 271.875 136.235 281.062 129.328 287.971L92.712 324.581C66.599 350.688 66.599 393.174 92.712 419.285 105.334 431.907 122.159 438.861 140.068 438.861 157.977 438.861 174.802 431.91 187.424 419.285L260.643 346.066C286.756 319.956 286.756 277.47 260.643 251.359 253.737 244.45 249.926 235.263 249.926 225.493 249.926 215.723 253.736 206.536 260.643 199.627 267.549 192.718 276.742 188.916 286.506 188.916 296.27 188.916 305.463 192.717 312.369 199.624 367.001 254.262 367.001 343.163 312.369 397.798L239.15 471.017C212.728 497.446 177.541 512 140.068 512Z" fill="#c4c4c7"/>
<text fill="#a5a5a7" xml:space="preserve" transform="matrix(1.0943378 0 0 1.0943378 55.558774 422.1292)" font-size="13" font-family="Inconsolata"><tspan y="73.411838" x="1237.5647 1244.0647 1250.5647 1257.0647 1263.5647 1270.0647 1276.5647 1283.0647 1289.5647 1296.0647">binary(16)</tspan></text>
</g>
<g clip-path="url(#clip_32)">
<path transform="matrix(1.0943378,0,0,1.0943378,1214.8297,516.4194)" d="M0 0H253.22916V32H0Z" fill="#383840"/>
<text fill="#c5c5c7" xml:space="preserve" transform="matrix(1.0943378 0 0 1.0943378 55.558774 422.1292)" font-size="13" font-family="Open Sans"><tspan y="105.411838" x="1069.3356 1077.2786 1084.5715 1090.7595 1096.9866 1102.2905 1105.5665 1111.7936 1119.0086">descricao</tspan></text>
<text fill="#a5a5a7" xml:space="preserve" transform="matrix(1.0943378 0 0 1.0943378 55.558774 422.1292)" font-size="13" font-family="Inconsolata"><tspan y="105.411838" x="1224.5647 1231.0647 1237.5647 1244.0647 1250.5647 1257.0647 1263.5647 1270.0647 1276.5647 1283.0647 1289.5647 1296.0647">varchar(225)</tspan></text>
</g>
<g clip-path="url(#clip_33)">
<path transform="matrix(1.0943378,0,0,1.0943378,1214.8297,551.4382)" d="M0 0H253.22916V32H0Z" fill="#383840"/>
<text fill="#c5c5c7" xml:space="preserve" transform="matrix(1.0943378 0 0 1.0943378 55.558774 422.1292)" font-size="13" font-family="Open Sans"><tspan y="137.41184" x="1069.3356 1077.2786 1084.4935 1089.1216 1096.3366 1102.0176 1108.5046 1115.7976 1123.7666 1129.9937 1133.2697 1145.2947 1152.5877 1160.5567 1165.1847">data_vencimento</tspan></text>
<text fill="#a5a5a7" xml:space="preserve" transform="matrix(1.0943378 0 0 1.0943378 55.558774 422.1292)" font-size="13" font-family="Inconsolata"><tspan y="137.41184" x="1231.0647 1237.5647 1244.0647 1250.5647 1257.0647 1263.5647 1270.0647 1276.5647 1283.0647 1289.5647 1296.0647">datetime(6)</tspan></text>
</g>
<g clip-path="url(#clip_34)">
<path transform="matrix(1.0943378,0,0,1.0943378,1214.8297,586.457)" d="M0 0H253.22916V32H0Z" fill="#383840"/>
<text fill="#c5c5c7" xml:space="preserve" transform="matrix(1.0943378 0 0 1.0943378 55.558774 422.1292)" font-size="13" font-family="Open Sans"><tspan y="169.41184" x="1069.3356 1077.2786 1082.5825 1085.8585 1093.6715 1098.9755 1102.2515 1110.1945 1117.4094 1125.3524 1132.6454">prioridades</tspan></text>
<text fill="#a5a5a7" xml:space="preserve" transform="matrix(1.0943378 0 0 1.0943378 55.558774 422.1292)" font-size="13" font-family="Inconsolata"><tspan y="169.41184" x="1224.5647 1231.0647 1237.5647 1244.0647 1250.5647 1257.0647 1263.5647 1270.0647 1276.5647 1283.0647 1289.5647 1296.0647">varchar(255)</tspan></text>
</g>
<g clip-path="url(#clip_35)">
<path transform="matrix(1.0943378,0,0,1.0943378,1214.8297,621.4758)" d="M0 0H253.22916V29C253.22916 30.656855 251.88602 32 250.22916 32H3C1.3431457 32 .0000000000000004 30.656855 0 29Z" fill="#383840"/>
<text fill="#c5c5c7" xml:space="preserve" transform="matrix(1.0943378 0 0 1.0943378 55.558774 422.1292)" font-size="13" font-family="Open Sans"><tspan y="201.41184" x="1069.3356 1075.5236 1080.1516 1087.3666 1091.9946 1099.9636">status</tspan></text>
<text fill="#a5a5a7" xml:space="preserve" transform="matrix(1.0943378 0 0 1.0943378 55.558774 422.1292)" font-size="13" font-family="Inconsolata"><tspan y="201.41184" x="1224.5647 1231.0647 1237.5647 1244.0647 1250.5647 1257.0647 1263.5647 1270.0647 1276.5647 1283.0647 1289.5647 1296.0647">varchar(255)</tspan></text>
</g>
</g>
</svg>
